<svg width="37" height="12" viewBox="0 0 37 12" fill="none" xmlns="http://www.w3.org/2000/svg">
<path d="M3.34 9.096C2.836 9.096 2.368 8.992 1.936 8.784C1.504 8.568 1.156 8.268 0.892 7.884L1.588 7.068C2.052 7.732 2.636 8.064 3.34 8.064C3.812 8.064 4.168 7.92 4.408 7.632C4.656 7.344 4.78 6.92 4.78 6.36V1.644H1.744V0.599999H5.968V6.3C5.968 7.228 5.744 7.928 5.296 8.4C4.856 8.864 4.204 9.096 3.34 9.096ZM10.5603 2.58C11.4403 2.58 12.1123 2.796 12.5763 3.228C13.0483 3.66 13.2843 4.304 13.2843 5.16V9H12.1923V8.16C12.0003 8.456 11.7243 8.684 11.3643 8.844C11.0123 8.996 10.5923 9.072 10.1043 9.072C9.39234 9.072 8.82034 8.9 8.38834 8.556C7.96434 8.212 7.75234 7.76 7.75234 7.2C7.75234 6.64 7.95634 6.192 8.36434 5.856C8.77234 5.512 9.42034 5.34 10.3083 5.34H12.1323V5.112C12.1323 4.616 11.9883 4.236 11.7003 3.972C11.4123 3.708 10.9883 3.576 10.4283 3.576C10.0523 3.576 9.68434 3.64 9.32434 3.768C8.96434 3.888 8.66034 4.052 8.41234 4.26L7.93234 3.396C8.26034 3.132 8.65234 2.932 9.10834 2.796C9.56434 2.652 10.0483 2.58 10.5603 2.58ZM10.2963 8.184C10.7363 8.184 11.1163 8.088 11.4363 7.896C11.7563 7.696 11.9883 7.416 12.1323 7.056V6.168H10.3563C9.38034 6.168 8.89234 6.496 8.89234 7.152C8.89234 7.472 9.01634 7.724 9.26434 7.908C9.51234 8.092 9.85634 8.184 10.2963 8.184ZM18.7882 2.58C19.4042 2.58 19.9562 2.716 20.4442 2.988C20.9322 3.26 21.3122 3.64 21.5842 4.128C21.8642 4.616 22.0042 5.18 22.0042 5.82C22.0042 6.46 21.8642 7.028 21.5842 7.524C21.3122 8.012 20.9322 8.392 20.4442 8.664C19.9562 8.936 19.4042 9.072 18.7882 9.072C18.3322 9.072 17.9122 8.984 17.5282 8.808C17.1522 8.632 16.8322 8.376 16.5682 8.04V11.328H15.4162V2.64H16.5202V3.648C16.7762 3.296 17.1002 3.032 17.4922 2.856C17.8842 2.672 18.3162 2.58 18.7882 2.58ZM18.6922 8.064C19.1002 8.064 19.4642 7.972 19.7842 7.788C20.1122 7.596 20.3682 7.332 20.5522 6.996C20.7442 6.652 20.8402 6.26 20.8402 5.82C20.8402 5.38 20.7442 4.992 20.5522 4.656C20.3682 4.312 20.1122 4.048 19.7842 3.864C19.4642 3.68 19.1002 3.588 18.6922 3.588C18.2922 3.588 17.9282 3.684 17.6002 3.876C17.2802 4.06 17.0242 4.32 16.8322 4.656C16.6482 4.992 16.5562 5.38 16.5562 5.82C16.5562 6.26 16.6482 6.652 16.8322 6.996C17.0162 7.332 17.2722 7.596 17.6002 7.788C17.9282 7.972 18.2922 8.064 18.6922 8.064ZM25.8533 2.58C26.7333 2.58 27.4053 2.796 27.8693 3.228C28.3413 3.66 28.5773 4.304 28.5773 5.16V9H27.4853V8.16C27.2933 8.456 27.0173 8.684 26.6573 8.844C26.3053 8.996 25.8853 9.072 25.3973 9.072C24.6853 9.072 24.1133 8.9 23.6813 8.556C23.2573 8.212 23.0453 7.76 23.0453 7.2C23.0453 6.64 23.2493 6.192 23.6573 5.856C24.0653 5.512 24.7133 5.34 25.6013 5.34H27.4253V5.112C27.4253 4.616 27.2813 4.236 26.9933 3.972C26.7053 3.708 26.2813 3.576 25.7213 3.576C25.3453 3.576 24.9773 3.64 24.6173 3.768C24.2573 3.888 23.9533 4.052 23.7053 4.26L23.2253 3.396C23.5533 3.132 23.9453 2.932 24.4013 2.796C24.8573 2.652 25.3413 2.58 25.8533 2.58ZM25.5893 8.184C26.0293 8.184 26.4093 8.088 26.7293 7.896C27.0493 7.696 27.2813 7.416 27.4253 7.056V6.168H25.6493C24.6733 6.168 24.1853 6.496 24.1853 7.152C24.1853 7.472 24.3093 7.724 24.5573 7.908C24.8053 8.092 25.1493 8.184 25.5893 8.184ZM34.1052 2.58C34.9132 2.58 35.5532 2.816 36.0252 3.288C36.5052 3.752 36.7452 4.436 36.7452 5.34V9H35.5932V5.472C35.5932 4.856 35.4452 4.392 35.1492 4.08C34.8532 3.768 34.4292 3.612 33.8772 3.612C33.2532 3.612 32.7612 3.796 32.4012 4.164C32.0412 4.524 31.8612 5.044 31.8612 5.724V9H30.7092V2.64H31.8132V3.6C32.0452 3.272 32.3572 3.02 32.7492 2.844C33.1492 2.668 33.6012 2.58 34.1052 2.58Z" fill="#5A5A5A"/>
</svg>
